<svg width="163" height="46" viewBox="0 0 163 46" fill="none" xmlns="http://www.w3.org/2000/svg">
<g clip-path="url(#clip0_1_64)">
<path fill-rule="evenodd" clip-rule="evenodd" d="M3.83331 23C3.83331 12.42 12.42 3.83337 23 3.83337C33.58 3.83337 42.1666 12.42 42.1666 23C42.1666 33.58 33.58 42.1667 23 42.1667C12.42 42.1667 3.83331 33.58 3.83331 23ZM30.6666 23L19.1666 14.375V31.625L30.6666 23Z" fill="#F3849F"/>
<path d="M69.552 20.384C69.552 21.0347 69.4027 21.632 69.104 22.176C68.8053 22.7093 68.3467 23.1413 67.728 23.472C67.1093 23.8027 66.3413 23.968 65.424 23.968H63.728V28H60.992V16.768H65.424C66.32 16.768 67.0773 16.9227 67.696 17.232C68.3147 17.5413 68.7787 17.968 69.088 18.512C69.3973 19.056 69.552 19.68 69.552 20.384ZM65.216 21.792C65.7387 21.792 66.128 21.6693 66.384 21.424C66.64 21.1787 66.768 20.832 66.768 20.384C66.768 19.936 66.64 19.5893 66.384 19.344C66.128 19.0987 65.7387 18.976 65.216 18.976H63.728V21.792H65.216ZM74.1924 25.888H77.7764V28H71.4564V16.768H74.1924V25.888ZM86.5534 26.016H82.3614L81.6894 28H78.8254L82.8894 16.768H86.0574L90.1214 28H87.2254L86.5534 26.016ZM85.8494 23.904L84.4574 19.792L83.0814 23.904H85.8494ZM101.47 16.768L97.5823 24.288V28H94.8463V24.288L90.9583 16.768H94.0623L96.2383 21.472L98.3983 16.768H101.47ZM117.467 16.768L113.483 28H110.059L106.075 16.768H108.987L111.771 25.248L114.571 16.768H117.467ZM121.827 16.768V28H119.091V16.768H121.827ZM128.498 16.768C129.682 16.768 130.716 17.0027 131.602 17.472C132.487 17.9413 133.17 18.6027 133.65 19.456C134.14 20.2987 134.386 21.2747 134.386 22.384C134.386 23.4827 134.14 24.4587 133.65 25.312C133.17 26.1653 132.482 26.8267 131.586 27.296C130.7 27.7653 129.671 28 128.498 28H124.29V16.768H128.498ZM128.322 25.632C129.356 25.632 130.162 25.3493 130.738 24.784C131.314 24.2187 131.602 23.4187 131.602 22.384C131.602 21.3493 131.314 20.544 130.738 19.968C130.162 19.392 129.356 19.104 128.322 19.104H127.026V25.632H128.322ZM139.13 18.96V21.232H142.794V23.344H139.13V25.808H143.274V28H136.394V16.768H143.274V18.96H139.13ZM150.843 28.112C149.787 28.112 148.816 27.8667 147.931 27.376C147.056 26.8853 146.357 26.2027 145.835 25.328C145.323 24.4427 145.067 23.4507 145.067 22.352C145.067 21.2533 145.323 20.2667 145.835 19.392C146.357 18.5173 147.056 17.8347 147.931 17.344C148.816 16.8533 149.787 16.608 150.843 16.608C151.899 16.608 152.864 16.8533 153.739 17.344C154.624 17.8347 155.317 18.5173 155.819 19.392C156.331 20.2667 156.587 21.2533 156.587 22.352C156.587 23.4507 156.331 24.4427 155.819 25.328C155.307 26.2027 154.613 26.8853 153.739 27.376C152.864 27.8667 151.899 28.112 150.843 28.112ZM150.843 25.616C151.739 25.616 152.453 25.3173 152.987 24.72C153.531 24.1227 153.803 23.3333 153.803 22.352C153.803 21.36 153.531 20.5707 152.987 19.984C152.453 19.3867 151.739 19.088 150.843 19.088C149.936 19.088 149.211 19.3813 148.667 19.968C148.133 20.5547 147.867 21.3493 147.867 22.352C147.867 23.344 148.133 24.1387 148.667 24.736C149.211 25.3227 149.936 25.616 150.843 25.616Z" fill="#F3849F"/>
</g>
<defs>
<clipPath id="clip0_1_64">
<rect width="163" height="46" fill="white"/>
</clipPath>
</defs>
</svg>
